<svg id="Layer_1" data-name="Layer 1" xmlns="http://www.w3.org/2000/svg" viewBox="0 0 568.1 398"><title>sadboi</title><circle cx="508" cy="60.1" r="60.1" style="fill:#231f20"/><circle cx="540.9" cy="31.7" r="11.4" style="fill:#fff"/><circle cx="60.1" cy="60.1" r="60.1" style="fill:#231f20"/><circle cx="93" cy="31.7" r="11.4" style="fill:#fff"/><path d="M503.9,369.3a10.9,10.9,0,0,1-4.7-.8c-68.7-28.4-141.4-40.2-216.1-35.3A479.2,479.2,0,0,0,73.5,396.6,10.5,10.5,0,0,1,63,378.5a498.9,498.9,0,0,1,218.7-66.2,499,499,0,0,1,225.5,36.8,10.5,10.5,0,0,1,5.7,13.7A10.7,10.7,0,0,1,503.9,369.3Z" style="fill:#231f20"/></svg>